<svg xmlns="http://www.w3.org/2000/svg" viewBox="0 0 342 386"><defs><style>.a{fill:#fff;stroke:#fff;stroke-miterlimit:10;stroke-width:8px;}</style></defs><title>account-icon</title><path class="a" d="M943.59,712.3a213.58,213.58,0,0,0-55.26-68.49,118.85,118.85,0,0,0,31.9-81.07c0-65.92-53.83-119.54-120-119.54s-120,53.62-120,119.54a118.85,118.85,0,0,0,31.89,81.06,213.73,213.73,0,0,0-55.26,68.5c-15.68,30.78-23.63,64.73-23.63,100.9a8,8,0,0,0,16,0c0-63.6,26.45-119.59,74.62-158.34a120.13,120.13,0,0,0,152.75,0c48.18,38.74,74.63,94.73,74.63,158.33a8,8,0,0,0,16,0C967.23,777,959.28,743.08,943.59,712.3ZM696.23,562.74c0-57.09,46.65-103.54,104-103.54s104,46.45,104,103.54-46.66,103.53-104,103.53S696.23,619.83,696.23,562.74Z" transform="translate(-629.23 -439.2)"/></svg>