<svg xmlns="http://www.w3.org/2000/svg" viewBox="0 0 47.9 36.6"><defs><style>.a{fill:#ced4d9;}</style></defs><title>img-placeholder-icon</title><path class="a" d="M43.7,36.6H4.2A4.23,4.23,0,0,1,0,32.4V4.2A4.23,4.23,0,0,1,4.2,0H43.7a4.23,4.23,0,0,1,4.2,4.2V32.4a4.23,4.23,0,0,1-4.2,4.2ZM4.1,2.7A1.37,1.37,0,0,0,2.7,4.1V32.3a1.37,1.37,0,0,0,1.4,1.4H43.6A1.37,1.37,0,0,0,45,32.3V4.1a1.37,1.37,0,0,0-1.4-1.4Z"/><path class="a" d="M31,16.7a5.48,5.48,0,0,1-5.5-5.5A5.5,5.5,0,1,1,31,16.7Zm0-8.5a2.9,2.9,0,1,0,2.9,2.9A2.9,2.9,0,0,0,31,8.2Z"/><polyline class="a" points="38.5 36.1 15.4 14.4 2.2 26.6 0.4 24.7 15.4 10.8 40.3 34.2 38.5 36.1"/><polyline class="a" points="45.7 28.9 38 22.7 31.6 28 29.9 25.9 38 19.3 47.3 26.9 45.7 28.9"/></svg>